<svg width="513.64" height="513.64" xmlns="http://www.w3.org/2000/svg">

 <g>
  <title>background</title>
  <rect fill="none" id="canvas_background" height="602" width="802" y="-1" x="-1"/>
 </g>
 <g>
  <title>Layer 1</title>
  <g id="svg_1">
   <g id="svg_2">
    <path fill="#ffffff" id="svg_3" d="m499.66,375.96l-71.68,-71.68c-25.6,-25.6 -69.12,-15.359 -79.36,17.92c-7.68,23.041 -33.28,35.841 -56.32,30.72c-51.2,-12.8 -120.32,-79.36 -133.12,-133.12c-7.68,-23.041 7.68,-48.641 30.72,-56.32c33.28,-10.24 43.52,-53.76 17.92,-79.36l-71.68,-71.68c-20.48,-17.92 -51.2,-17.92 -69.12,0l-48.64,48.64c-48.64,51.2 5.12,186.88 125.44,307.2c120.32,120.32 256,176.641 307.2,125.44l48.64,-48.64c17.921,-20.48 17.921,-51.2 0,-69.12z"/>
   </g>
  </g>
  <g id="svg_4"/>
  <g id="svg_5"/>
  <g id="svg_6"/>
  <g id="svg_7"/>
  <g id="svg_8"/>
  <g id="svg_9"/>
  <g id="svg_10"/>
  <g id="svg_11"/>
  <g id="svg_12"/>
  <g id="svg_13"/>
  <g id="svg_14"/>
  <g id="svg_15"/>
  <g id="svg_16"/>
  <g id="svg_17"/>
  <g id="svg_18"/>
 </g>
</svg>